<mxfile host="app.diagrams.net" agent="Mozilla/5.0 (Macintosh; Intel Mac OS X 10_15_7) AppleWebKit/537.36 (KHTML, like Gecko) Chrome/131.0.0.0 Safari/537.36" version="25.0.3">
  <diagram name="第 1 页" id="1cWHc6eXeA2GBQ50_B6X">
    <mxGraphModel dx="867" dy="570" grid="1" gridSize="10" guides="1" tooltips="1" connect="1" arrows="1" fold="1" page="1" pageScale="1" pageWidth="827" pageHeight="1169" math="0" shadow="0">
      <root>
        <mxCell id="0" />
        <mxCell id="1" parent="0" />
        <mxCell id="27CM9ocwMfiaDfQ64QIg-1" value="PC" style="rounded=0;whiteSpace=wrap;html=1;fillColor=#f0a30a;strokeColor=#BD7000;fontColor=#000000;" vertex="1" parent="1">
          <mxGeometry x="200" y="80" width="120" height="60" as="geometry" />
        </mxCell>
        <mxCell id="27CM9ocwMfiaDfQ64QIg-2" value="小程序" style="rounded=0;whiteSpace=wrap;html=1;fillColor=#f0a30a;strokeColor=#BD7000;fontColor=#000000;" vertex="1" parent="1">
          <mxGeometry x="520" y="80" width="120" height="60" as="geometry" />
        </mxCell>
        <mxCell id="27CM9ocwMfiaDfQ64QIg-3" value="OpenRestry/Nginx&lt;div&gt;反向代理+负载均衡+限流+黑白名单+流量控制+业务校验&lt;/div&gt;" style="rounded=0;whiteSpace=wrap;html=1;fillColor=#f8cecc;strokeColor=#b85450;" vertex="1" parent="1">
          <mxGeometry x="200" y="190" width="440" height="40" as="geometry" />
        </mxCell>
        <mxCell id="27CM9ocwMfiaDfQ64QIg-4" value="" style="shape=flexArrow;endArrow=classic;html=1;rounded=0;fillColor=#f5f5f5;strokeColor=#666666;" edge="1" parent="1">
          <mxGeometry width="50" height="50" relative="1" as="geometry">
            <mxPoint x="259.55" y="140" as="sourcePoint" />
            <mxPoint x="259.55" y="190" as="targetPoint" />
          </mxGeometry>
        </mxCell>
        <mxCell id="27CM9ocwMfiaDfQ64QIg-5" value="" style="shape=flexArrow;endArrow=classic;html=1;rounded=0;fillColor=#f5f5f5;strokeColor=#666666;" edge="1" parent="1">
          <mxGeometry width="50" height="50" relative="1" as="geometry">
            <mxPoint x="579.55" y="140" as="sourcePoint" />
            <mxPoint x="579.55" y="190" as="targetPoint" />
          </mxGeometry>
        </mxCell>
        <mxCell id="27CM9ocwMfiaDfQ64QIg-6" value="" style="rounded=0;whiteSpace=wrap;html=1;fillColor=#e1d5e7;strokeColor=#9673a6;align=left;" vertex="1" parent="1">
          <mxGeometry x="200" y="280" width="440" height="80" as="geometry" />
        </mxCell>
        <mxCell id="27CM9ocwMfiaDfQ64QIg-7" value="用户管理" style="rounded=0;whiteSpace=wrap;html=1;fillColor=#ffe6cc;strokeColor=#d79b00;" vertex="1" parent="1">
          <mxGeometry x="220" y="298" width="110" height="40" as="geometry" />
        </mxCell>
        <mxCell id="27CM9ocwMfiaDfQ64QIg-9" value="题目识别" style="rounded=0;whiteSpace=wrap;html=1;fillColor=#ffe6cc;strokeColor=#d79b00;" vertex="1" parent="1">
          <mxGeometry x="365" y="298" width="110" height="40" as="geometry" />
        </mxCell>
        <mxCell id="27CM9ocwMfiaDfQ64QIg-10" value="题目收集" style="rounded=0;whiteSpace=wrap;html=1;fillColor=#ffe6cc;strokeColor=#d79b00;" vertex="1" parent="1">
          <mxGeometry x="510" y="298" width="110" height="40" as="geometry" />
        </mxCell>
        <mxCell id="27CM9ocwMfiaDfQ64QIg-11" value="" style="rounded=0;whiteSpace=wrap;html=1;" vertex="1" parent="1">
          <mxGeometry x="1260" y="250" width="120" height="60" as="geometry" />
        </mxCell>
        <mxCell id="27CM9ocwMfiaDfQ64QIg-13" value="" style="shape=flexArrow;endArrow=classic;html=1;rounded=0;fillColor=#f5f5f5;strokeColor=#666666;" edge="1" parent="1">
          <mxGeometry width="50" height="50" relative="1" as="geometry">
            <mxPoint x="360" y="230" as="sourcePoint" />
            <mxPoint x="360" y="280" as="targetPoint" />
          </mxGeometry>
        </mxCell>
        <mxCell id="27CM9ocwMfiaDfQ64QIg-14" value="" style="shape=flexArrow;endArrow=classic;html=1;rounded=0;fillColor=#f5f5f5;strokeColor=#666666;" edge="1" parent="1">
          <mxGeometry width="50" height="50" relative="1" as="geometry">
            <mxPoint x="475" y="279" as="sourcePoint" />
            <mxPoint x="475" y="230" as="targetPoint" />
          </mxGeometry>
        </mxCell>
        <mxCell id="27CM9ocwMfiaDfQ64QIg-15" value="&lt;div&gt;&lt;font style=&quot;font-size: 18px;&quot;&gt;&lt;br&gt;&lt;/font&gt;&lt;/div&gt;&lt;div&gt;&lt;br&gt;&lt;/div&gt;&lt;div&gt;&lt;br&gt;&lt;/div&gt;&lt;div&gt;&lt;br&gt;&lt;/div&gt;&lt;font style=&quot;font-size: 18px;&quot;&gt;数据存储&lt;/font&gt;" style="rounded=0;whiteSpace=wrap;html=1;fillColor=#FFB0B0;strokeColor=#36393d;align=center;" vertex="1" parent="1">
          <mxGeometry x="200" y="410" width="440" height="80" as="geometry" />
        </mxCell>
        <mxCell id="27CM9ocwMfiaDfQ64QIg-16" value="MySQL" style="rounded=0;whiteSpace=wrap;html=1;fillColor=#ffff88;strokeColor=#36393d;" vertex="1" parent="1">
          <mxGeometry x="250" y="430" width="135" height="30" as="geometry" />
        </mxCell>
        <mxCell id="27CM9ocwMfiaDfQ64QIg-17" value="Redis" style="rounded=0;whiteSpace=wrap;html=1;fillColor=#ffff88;strokeColor=#36393d;" vertex="1" parent="1">
          <mxGeometry x="460" y="430" width="135" height="30" as="geometry" />
        </mxCell>
        <mxCell id="27CM9ocwMfiaDfQ64QIg-18" value="" style="shape=flexArrow;endArrow=classic;html=1;rounded=0;fillColor=#f5f5f5;strokeColor=#666666;" edge="1" parent="1">
          <mxGeometry width="50" height="50" relative="1" as="geometry">
            <mxPoint x="310" y="360" as="sourcePoint" />
            <mxPoint x="310" y="410" as="targetPoint" />
          </mxGeometry>
        </mxCell>
        <mxCell id="27CM9ocwMfiaDfQ64QIg-19" value="" style="shape=flexArrow;endArrow=classic;html=1;rounded=0;fillColor=#f5f5f5;strokeColor=#666666;" edge="1" parent="1">
          <mxGeometry width="50" height="50" relative="1" as="geometry">
            <mxPoint x="540" y="409" as="sourcePoint" />
            <mxPoint x="540" y="360" as="targetPoint" />
          </mxGeometry>
        </mxCell>
        <mxCell id="27CM9ocwMfiaDfQ64QIg-20" value="&lt;font style=&quot;font-size: 15px;&quot;&gt;OpenAI&amp;nbsp; SDK&lt;/font&gt;" style="rounded=0;whiteSpace=wrap;html=1;fillColor=#cdeb8b;strokeColor=#36393d;" vertex="1" parent="1">
          <mxGeometry x="720" y="265" width="70" height="110" as="geometry" />
        </mxCell>
        <mxCell id="27CM9ocwMfiaDfQ64QIg-23" value="" style="shape=flexArrow;endArrow=classic;startArrow=classic;html=1;rounded=0;entryX=0;entryY=0.5;entryDx=0;entryDy=0;exitX=1;exitY=0.5;exitDx=0;exitDy=0;fillColor=#eeeeee;strokeColor=#36393d;" edge="1" parent="1" source="27CM9ocwMfiaDfQ64QIg-6" target="27CM9ocwMfiaDfQ64QIg-20">
          <mxGeometry width="100" height="100" relative="1" as="geometry">
            <mxPoint x="660" y="530" as="sourcePoint" />
            <mxPoint x="760" y="430" as="targetPoint" />
          </mxGeometry>
        </mxCell>
        <mxCell id="27CM9ocwMfiaDfQ64QIg-24" value="MQ" style="rounded=0;whiteSpace=wrap;html=1;fillColor=#cce5ff;strokeColor=#36393d;" vertex="1" parent="1">
          <mxGeometry x="60" y="280" width="70" height="210" as="geometry" />
        </mxCell>
        <mxCell id="27CM9ocwMfiaDfQ64QIg-25" value="" style="shape=flexArrow;endArrow=classic;html=1;rounded=0;entryX=1.017;entryY=0.807;entryDx=0;entryDy=0;exitX=0.002;exitY=0.426;exitDx=0;exitDy=0;exitPerimeter=0;fillColor=#eeeeee;strokeColor=#36393d;entryPerimeter=0;" edge="1" parent="1" target="27CM9ocwMfiaDfQ64QIg-24">
          <mxGeometry width="50" height="50" relative="1" as="geometry">
            <mxPoint x="200.8800000000001" y="449.5899999999999" as="sourcePoint" />
            <mxPoint x="160" y="449.5500000000001" as="targetPoint" />
          </mxGeometry>
        </mxCell>
        <mxCell id="27CM9ocwMfiaDfQ64QIg-28" value="" style="shape=flexArrow;endArrow=classic;startArrow=classic;html=1;rounded=0;fillColor=#eeeeee;strokeColor=#36393d;" edge="1" parent="1">
          <mxGeometry width="100" height="100" relative="1" as="geometry">
            <mxPoint x="130" y="320" as="sourcePoint" />
            <mxPoint x="200" y="320" as="targetPoint" />
          </mxGeometry>
        </mxCell>
        <mxCell id="27CM9ocwMfiaDfQ64QIg-29" value="H5" style="rounded=0;whiteSpace=wrap;html=1;fillColor=#f0a30a;strokeColor=#BD7000;fontColor=#000000;" vertex="1" parent="1">
          <mxGeometry x="360" y="80" width="120" height="60" as="geometry" />
        </mxCell>
        <mxCell id="27CM9ocwMfiaDfQ64QIg-30" value="" style="shape=flexArrow;endArrow=classic;html=1;rounded=0;fillColor=#f5f5f5;strokeColor=#666666;" edge="1" parent="1">
          <mxGeometry width="50" height="50" relative="1" as="geometry">
            <mxPoint x="419.55" y="140" as="sourcePoint" />
            <mxPoint x="419.55" y="190" as="targetPoint" />
          </mxGeometry>
        </mxCell>
      </root>
    </mxGraphModel>
  </diagram>
</mxfile>
